<!DOCTYPE svg PUBLIC "-//W3C//DTD SVG 1.1//EN" "http://www.w3.org/Graphics/SVG/1.1/DTD/svg11.dtd">
<!-- Uploaded to: SVG Repo, www.svgrepo.com, Transformed by: SVG Repo Mixer Tools -->
<svg width="800px" height="800px" viewBox="0 0 24 24" fill="none" xmlns="http://www.w3.org/2000/svg">

<g id="SVGRepo_bgCarrier" stroke-width="0"/>

<g id="SVGRepo_tracerCarrier" stroke-linecap="round" stroke-linejoin="round"/>

<g id="SVGRepo_iconCarrier"> <path d="M12 3H6C4.93913 3 3.92172 3.42149 3.17157 4.17163C2.42142 4.92178 2 5.93913 2 7V14C2 15.0609 2.42142 16.0783 3.17157 16.8285C3.92172 17.5786 4.93913 18 6 18H8L10.29 20.29C10.514 20.5156 10.7804 20.6946 11.0739 20.8168C11.3674 20.9389 11.6821 21.0018 12 21.0018C12.3179 21.0018 12.6326 20.9389 12.9261 20.8168C13.2196 20.6946 13.486 20.5156 13.71 20.29L16 18H18C19.0609 18 20.0783 17.5786 20.8284 16.8285C21.5786 16.0783 22 15.0609 22 14V10" stroke="#ffffff" stroke-width="1.5" stroke-linecap="round" stroke-linejoin="round"/> <path d="M20.6 1.00003C20.008 1.00175 19.4377 1.2171 19 1.60422C18.6567 1.30103 18.23 1.10139 17.7719 1.02963C17.3138 0.957876 16.844 1.0171 16.42 1.20011C15.9959 1.38311 15.6359 1.68198 15.3838 2.06026C15.1316 2.43854 14.9983 2.87989 15 3.33048C15 6.11406 19 8 19 8C19 8 23 6.11406 23 3.33048C23 2.71241 22.7472 2.11966 22.2971 1.68261C21.847 1.24557 21.2365 1.00003 20.6 1.00003Z" stroke="#ffffff" stroke-width="1.5" stroke-linecap="round" stroke-linejoin="round"/> </g>

</svg>